<svg width="20" height="18" viewBox="0 0 20 18" fill="none" xmlns="http://www.w3.org/2000/svg">
<path fill-rule="evenodd" clip-rule="evenodd" d="M15.64 3.35627C15.55 3.35627 15.48 3.30633 15.44 3.2364L15.34 3.01665L15.1987 2.71839C14.9675 2.22991 14.7275 1.72307 14.57 1.40844C14.11 0.509434 13.32 0.0099889 12.35 0H7.64C6.67 0.0099889 5.89 0.509434 5.43 1.40844C5.25464 1.75877 4.97164 2.35486 4.71583 2.89368L4.61 3.11654L4.55 3.2364C4.52 3.31632 4.44 3.35627 4.36 3.35627C1.95 3.35627 0 5.3141 0 7.71143V13.6448C0 16.0422 1.95 18 4.36 18H15.64C18.04 18 20 16.0422 20 13.6448V7.71143C20 5.3141 18.04 3.35627 15.64 3.35627ZM12.7695 13.1054C12.0595 13.8146 11.0795 14.2541 9.99951 14.2541C8.94951 14.2541 7.96951 13.8446 7.21951 13.1054C6.47951 12.3562 6.06951 11.3773 6.06951 10.3285C6.05951 9.28962 6.46951 8.31071 7.20951 7.56154C7.95951 6.81238 8.94951 6.40283 9.99951 6.40283C11.0495 6.40283 12.0395 6.81238 12.7795 7.55156C13.5195 8.30072 13.9295 9.28962 13.9295 10.3285C13.9195 11.4173 13.4795 12.3962 12.7695 13.1054ZM14.71 7.0722C14.71 7.57164 15.11 7.9712 15.61 7.9712C16.11 7.9712 16.52 7.57164 16.52 7.0722C16.52 6.57275 16.11 6.16321 15.61 6.16321C15.11 6.16321 14.71 6.57275 14.71 7.0722Z" fill="#EDA92D"/>
<path d="M9.99962 7.90125C9.34962 7.90125 8.73962 8.15097 8.26962 8.62045C7.80962 9.07994 7.55962 9.68926 7.56962 10.3186V10.3285C7.56962 10.9778 7.81962 11.5871 8.27962 12.0466C8.73962 12.5061 9.34962 12.7559 9.99962 12.7559C11.3396 12.7559 12.4196 11.6671 12.4296 10.3285C12.4296 9.67927 12.1796 9.06995 11.7196 8.61046C11.2596 8.15097 10.6496 7.90125 9.99962 7.90125Z" fill="#EDA92D"/>
</svg>
