<svg width="20" height="16" viewBox="0 0 20 16" fill="none" xmlns="http://www.w3.org/2000/svg">
<path d="M5.71429 12.4318V14.4773C5.71429 14.7614 5.61012 15.0028 5.40179 15.2017C5.19345 15.4006 4.94048 15.5 4.64286 15.5H1.07143C0.77381 15.5 0.520833 15.4006 0.3125 15.2017C0.104167 15.0028 0 14.7614 0 14.4773V12.4318C0 12.1477 0.104167 11.9062 0.3125 11.7074C0.520833 11.5085 0.77381 11.4091 1.07143 11.4091H4.64286C4.94048 11.4091 5.19345 11.5085 5.40179 11.7074C5.61012 11.9062 5.71429 12.1477 5.71429 12.4318ZM5.71429 6.97727V9.02273C5.71429 9.30682 5.61012 9.5483 5.40179 9.74716C5.19345 9.94602 4.94048 10.0455 4.64286 10.0455H1.07143C0.77381 10.0455 0.520833 9.94602 0.3125 9.74716C0.104167 9.5483 0 9.30682 0 9.02273V6.97727C0 6.69318 0.104167 6.4517 0.3125 6.25284C0.520833 6.05398 0.77381 5.95455 1.07143 5.95455H4.64286C4.94048 5.95455 5.19345 6.05398 5.40179 6.25284C5.61012 6.4517 5.71429 6.69318 5.71429 6.97727ZM20 12.4318V14.4773C20 14.7614 19.8958 15.0028 19.6875 15.2017C19.4792 15.4006 19.2262 15.5 18.9286 15.5H8.21429C7.91667 15.5 7.66369 15.4006 7.45536 15.2017C7.24702 15.0028 7.14286 14.7614 7.14286 14.4773V12.4318C7.14286 12.1477 7.24702 11.9062 7.45536 11.7074C7.66369 11.5085 7.91667 11.4091 8.21429 11.4091H18.9286C19.2262 11.4091 19.4792 11.5085 19.6875 11.7074C19.8958 11.9062 20 12.1477 20 12.4318ZM5.71429 1.52273V3.56818C5.71429 3.85227 5.61012 4.09375 5.40179 4.29261C5.19345 4.49148 4.94048 4.59091 4.64286 4.59091H1.07143C0.77381 4.59091 0.520833 4.49148 0.3125 4.29261C0.104167 4.09375 0 3.85227 0 3.56818V1.52273C0 1.23864 0.104167 0.997159 0.3125 0.798295C0.520833 0.599432 0.77381 0.5 1.07143 0.5H4.64286C4.94048 0.5 5.19345 0.599432 5.40179 0.798295C5.61012 0.997159 5.71429 1.23864 5.71429 1.52273ZM20 6.97727V9.02273C20 9.30682 19.8958 9.5483 19.6875 9.74716C19.4792 9.94602 19.2262 10.0455 18.9286 10.0455H8.21429C7.91667 10.0455 7.66369 9.94602 7.45536 9.74716C7.24702 9.5483 7.14286 9.30682 7.14286 9.02273V6.97727C7.14286 6.69318 7.24702 6.4517 7.45536 6.25284C7.66369 6.05398 7.91667 5.95455 8.21429 5.95455H18.9286C19.2262 5.95455 19.4792 6.05398 19.6875 6.25284C19.8958 6.4517 20 6.69318 20 6.97727ZM20 1.52273V3.56818C20 3.85227 19.8958 4.09375 19.6875 4.29261C19.4792 4.49148 19.2262 4.59091 18.9286 4.59091H8.21429C7.91667 4.59091 7.66369 4.49148 7.45536 4.29261C7.24702 4.09375 7.14286 3.85227 7.14286 3.56818V1.52273C7.14286 1.23864 7.24702 0.997159 7.45536 0.798295C7.66369 0.599432 7.91667 0.5 8.21429 0.5H18.9286C19.2262 0.5 19.4792 0.599432 19.6875 0.798295C19.8958 0.997159 20 1.23864 20 1.52273Z" fill="#91A0B6"/>
</svg>
