<svg width="20" height="23" viewBox="0 0 20 23" fill="none" xmlns="http://www.w3.org/2000/svg">
<path d="M2.5 20.1875H6.25V13.9375C6.25 13.5833 6.37 13.2867 6.61 13.0475C6.85 12.8083 7.14667 12.6883 7.5 12.6875H12.5C12.8542 12.6875 13.1512 12.8075 13.3912 13.0475C13.6312 13.2875 13.7508 13.5842 13.75 13.9375V20.1875H17.5V8.9375L10 3.3125L2.5 8.9375V20.1875ZM0 20.1875V8.9375C0 8.54167 0.0887498 8.16667 0.26625 7.8125C0.44375 7.45833 0.688333 7.16667 1 6.9375L8.5 1.3125C8.9375 0.979167 9.4375 0.8125 10 0.8125C10.5625 0.8125 11.0625 0.979167 11.5 1.3125L19 6.9375C19.3125 7.16667 19.5575 7.45833 19.735 7.8125C19.9125 8.16667 20.0008 8.54167 20 8.9375V20.1875C20 20.875 19.755 21.4637 19.265 21.9537C18.775 22.4437 18.1867 22.6883 17.5 22.6875H12.5C12.1458 22.6875 11.8492 22.5675 11.61 22.3275C11.3708 22.0875 11.2508 21.7908 11.25 21.4375V15.1875H8.75V21.4375C8.75 21.7917 8.63 22.0887 8.39 22.3287C8.15 22.5687 7.85333 22.6883 7.5 22.6875H2.5C1.8125 22.6875 1.22417 22.4429 0.735 21.9537C0.245833 21.4646 0.000833333 20.8758 0 20.1875Z" fill="#EDA92D"/>
</svg>
