<svg width="20" height="21" viewBox="0 0 20 21" fill="none" xmlns="http://www.w3.org/2000/svg">
<path d="M19.1592 15.602L15.7962 12.2347C16.3057 11.1122 16.6115 9.9898 16.6115 8.76531C16.6115 6.52041 15.7962 4.47959 14.1656 2.94898C10.9045 -0.316327 5.70701 -0.316327 2.44586 2.94898C-0.815287 6.21429 -0.815287 11.4184 2.44586 14.6837C3.97452 16.2143 6.11465 17.1327 8.25478 17.1327C9.47771 17.1327 10.7006 16.8265 11.7197 16.3163L15.0828 19.6837C15.5924 20.1939 16.4076 20.5 17.121 20.5C17.8344 20.5 18.5478 20.1939 19.1592 19.6837C20.2803 18.4592 20.2803 16.6224 19.1592 15.602ZM3.87261 13.051C1.42675 10.602 1.42675 6.62245 3.87261 4.27551C5.09554 3.05102 6.6242 2.43878 8.25478 2.43878C9.88535 2.43878 11.414 3.05102 12.6369 4.27551C13.8599 5.5 14.4713 7.03061 14.4713 8.66327C14.4713 10.2959 13.8599 11.9286 12.6369 13.051C11.414 14.1735 9.88535 14.8878 8.25478 14.8878C6.6242 14.8878 4.99363 14.2755 3.87261 13.051Z" fill="#91A0B6"/>
</svg>
