<svg width="20" height="20" viewBox="0 0 20 20" fill="none" xmlns="http://www.w3.org/2000/svg">
<path d="M10.7167 9.15527e-05C11.4729 9.15527e-05 12.1579 0.420158 12.536 1.04013C12.7199 1.34003 12.843 1.70985 12.8124 2.0997C12.792 2.3997 12.8833 2.70056 13.0468 2.98056C13.568 3.83044 14.7237 4.14998 15.623 3.67001C16.6345 3.09036 17.9115 3.44013 18.4941 4.42978L19.1786 5.61044C19.7713 6.60043 19.4447 7.87054 18.4228 8.44052C17.5542 8.95056 17.2473 10.0806 17.7685 10.9405C17.9319 11.2104 18.1162 11.4402 18.4023 11.5802C18.7599 11.7702 19.0362 12.0702 19.2304 12.3702C19.6083 12.9901 19.5776 13.7501 19.2099 14.42L18.4941 15.6202C18.1159 16.2601 17.411 16.6602 16.6855 16.6602C16.3279 16.6602 15.9294 16.5603 15.6025 16.3604C15.3368 16.1905 15.03 16.13 14.703 16.13C13.6913 16.13 12.8431 16.9603 12.8124 17.9503C12.8123 19.1 11.8721 19.9998 10.6972 20.0001H9.30656C8.12129 19.9999 7.18166 19.1001 7.18156 17.9503C7.16112 16.9603 6.31243 16.13 5.3007 16.13C4.96348 16.13 4.65675 16.1905 4.40128 16.3604C4.07433 16.5603 3.66562 16.6602 3.31827 16.6602C2.58247 16.6602 1.87707 16.2602 1.49894 15.6202L0.793861 14.42C0.415818 13.7701 0.395341 12.9902 0.773353 12.3702C0.936822 12.0703 1.24339 11.7702 1.59074 11.5802C1.87684 11.4402 2.06156 11.2105 2.23527 10.9405C2.74625 10.0805 2.43889 8.95052 1.57023 8.44052C0.558671 7.87054 0.232088 6.60037 0.814369 5.61044L1.49894 4.42978C2.09168 3.43997 3.35891 3.09021 4.38077 3.67001C5.26977 4.14996 6.42492 3.83033 6.9462 2.98056C7.10972 2.70056 7.202 2.3997 7.18156 2.0997C7.16121 1.70984 7.27358 1.34004 7.46769 1.04013C7.84583 0.420209 8.53031 0.0200901 9.27628 9.15527e-05H10.7167ZM10.0116 7.17978C8.40725 7.17979 7.10942 8.43997 7.10929 10.0099C7.10929 11.5799 8.40717 12.8302 10.0116 12.8302C11.6161 12.8302 12.8837 11.5799 12.8837 10.0099C12.8836 8.43996 11.616 7.17978 10.0116 7.17978Z" fill="#EDA92D"/>
</svg>
